{
	"asset":{
		"generator":"Khronos glTF Blender I/O v4.4.56",
		"version":"2.0"
	},
	"scene":0,
	"scenes":[
		{
			"name":"Scene",
			"nodes":[
				0,
				1,
				2,
				15
			]
		}
	],
	"nodes":[
		{
			"name":"Empty",
			"rotation":[
				0.5,
				0.5,
				-0.5,
				0.5
			],
			"scale":[
				1.6545238494873047,
				1.6545238494873047,
				1.6545238494873047
			],
			"translation":[
				-3.7934372425079346,
				0,
				0.052503861486911774
			]
		},
		{
			"name":"Empty.001"
		},
		{
			"name":"Empty.002"
		},
		{
			"name":"Head",
			"translation":[
				0,
				1.2600977420806885,
				0
			]
		},
		{
			"name":"ArmLowL",
			"rotation":[
				0.0007359107839874923,
				-1.1920926112907182e-07,
				-8.772538945267527e-11,
				0.9999997615814209
			],
			"translation":[
				-5.329070518200751e-15,
				1.0775851011276245,
				-4.1211023926734924e-08
			]
		},
		{
			"children":[
				4
			],
			"name":"ArmUpL",
			"rotation":[
				-0.7072615027427673,
				1.126792256275375e-22,
				0,
				0.7069520950317383
			],
			"scale":[
				1,
				0.9999999403953552,
				0.9999999403953552
			],
			"translation":[
				0,
				1.245760440826416,
				-0.5960225462913513
			]
		},
		{
			"name":"ArmLowR",
			"rotation":[
				-1.1987293102588836e-10,
				2.3838966001221706e-07,
				0.0007358990260399878,
				0.9999997615814209
			],
			"translation":[
				-5.803304503615436e-08,
				1.077585220336914,
				7.105427357601002e-15
			]
		},
		{
			"children":[
				6
			],
			"name":"ArmUpR",
			"rotation":[
				0.49989059567451477,
				0.5001093745231628,
				0.49989059567451477,
				0.5001094341278076
			],
			"scale":[
				0.9999999403953552,
				0.9999998807907104,
				0.9999999403953552
			],
			"translation":[
				0,
				1.252323865890503,
				0.6064786911010742
			]
		},
		{
			"children":[
				3,
				5,
				7
			],
			"name":"Chest",
			"translation":[
				0,
				0.7309165596961975,
				0
			]
		},
		{
			"name":"LegLowL",
			"rotation":[
				-2.2830693779951616e-08,
				1.5893256488652696e-08,
				2.2830693779951616e-08,
				1
			],
			"translation":[
				-7.657209977196544e-09,
				1.3053621053695679,
				5.773159728050814e-15
			]
		},
		{
			"children":[
				9
			],
			"name":"LegUpL",
			"rotation":[
				-0.7071067690849304,
				2.5121478909004595e-15,
				0.7071067690849304,
				3.228747758043937e-08
			],
			"scale":[
				1,
				0.9999999403953552,
				1
			],
			"translation":[
				0,
				-0.18097656965255737,
				-0.32359275221824646
			]
		},
		{
			"name":"LegLowR",
			"rotation":[
				-2.2830693779951616e-08,
				1.5893256488652696e-08,
				2.2830693779951616e-08,
				1
			],
			"translation":[
				-7.657212641731803e-09,
				1.3053621053695679,
				1.7763568394002505e-15
			]
		},
		{
			"children":[
				11
			],
			"name":"LegUpR",
			"rotation":[
				-0.7071067690849304,
				2.5121478909004595e-15,
				0.7071067690849304,
				3.228747758043937e-08
			],
			"scale":[
				1,
				0.9999999403953552,
				1
			],
			"translation":[
				0,
				-0.18097656965255737,
				0.3491361737251282
			]
		},
		{
			"children":[
				8,
				10,
				12
			],
			"name":"Pelvis",
			"rotation":[
				0,
				-0.7071068286895752,
				0,
				0.7071068286895752
			],
			"translation":[
				0,
				-0.6694269180297852,
				0
			]
		},
		{
			"mesh":0,
			"name":"Body",
			"skin":0
		},
		{
			"children":[
				14,
				13
			],
			"name":"Armature",
			"translation":[
				0,
				0.6827080249786377,
				0
			]
		}
	],
	"meshes":[
		{
			"name":"Cube.003",
			"primitives":[
				{
					"attributes":{
						"POSITION":0,
						"NORMAL":1,
						"TEXCOORD_0":2,
						"JOINTS_0":3,
						"WEIGHTS_0":4
					},
					"indices":5
				}
			]
		}
	],
	"skins":[
		{
			"inverseBindMatrices":6,
			"joints":[
				13,
				8,
				3,
				5,
				4,
				7,
				6,
				10,
				9,
				12,
				11
			],
			"name":"Armature"
		}
	],
	"accessors":[
		{
			"bufferView":0,
			"componentType":5126,
			"count":7052,
			"max":[
				3.2641305923461914,
				2.9947762489318848,
				0.6993770003318787
			],
			"min":[
				-3.2641303539276123,
				-2.92952299118042,
				-0.3387857675552368
			],
			"type":"VEC3"
		},
		{
			"bufferView":1,
			"componentType":5126,
			"count":7052,
			"type":"VEC3"
		},
		{
			"bufferView":2,
			"componentType":5126,
			"count":7052,
			"type":"VEC2"
		},
		{
			"bufferView":3,
			"componentType":5121,
			"count":7052,
			"type":"VEC4"
		},
		{
			"bufferView":4,
			"componentType":5126,
			"count":7052,
			"type":"VEC4"
		},
		{
			"bufferView":5,
			"componentType":5123,
			"count":11784,
			"type":"SCALAR"
		},
		{
			"bufferView":6,
			"componentType":5126,
			"count":11,
			"type":"MAT4"
		}
	],
	"bufferViews":[
		{
			"buffer":0,
			"byteLength":84624,
			"byteOffset":0,
			"target":34962
		},
		{
			"buffer":0,
			"byteLength":84624,
			"byteOffset":84624,
			"target":34962
		},
		{
			"buffer":0,
			"byteLength":56416,
			"byteOffset":169248,
			"target":34962
		},
		{
			"buffer":0,
			"byteLength":28208,
			"byteOffset":225664,
			"target":34962
		},
		{
			"buffer":0,
			"byteLength":112832,
			"byteOffset":253872,
			"target":34962
		},
		{
			"buffer":0,
			"byteLength":23568,
			"byteOffset":366704,
			"target":34963
		},
		{
			"buffer":0,
			"byteLength":704,
			"byteOffset":390272
		}
	],
	"buffers":[
		{
			"byteLength":390976,
			"uri":"HumanBody.bin"
		}
	]
}
