{
	"asset":{
		"generator":"Khronos glTF Blender I/O v4.4.56",
		"version":"2.0"
	},
	"scene":0,
	"scenes":[
		{
			"name":"Scene",
			"nodes":[
				3
			]
		}
	],
	"nodes":[
		{
			"name":"Child",
			"rotation":[
				0.7071067690849304,
				0.7071067690849304,
				0,
				0
			],
			"translation":[
				0,
				4.2207255363464355,
				0
			]
		},
		{
			"children":[
				0
			],
			"name":"Parent",
			"rotation":[
				0.7071067690849304,
				-3.0626614488937776e-07,
				-3.0626614488937776e-07,
				0.7071067690849304
			],
			"translation":[
				0,
				0.01030614972114563,
				-4.27401065826416
			]
		},
		{
			"mesh":0,
			"name":"XD",
			"skin":0
		},
		{
			"children":[
				2,
				1
			],
			"name":"Armature"
		}
	],
	"materials":[
		{
			"doubleSided":true,
			"name":"Red",
			"pbrMetallicRoughness":{
				"baseColorFactor":[
					0.8001017570495605,
					0,
					0.008153769187629223,
					1
				],
				"metallicFactor":0,
				"roughnessFactor":0.5
			}
		},
		{
			"doubleSided":true,
			"name":"Blue",
			"pbrMetallicRoughness":{
				"baseColorFactor":[
					0.005923438351601362,
					0,
					0.8000473976135254,
					1
				],
				"metallicFactor":0,
				"roughnessFactor":0.5
			}
		},
		{
			"doubleSided":true,
			"name":"Green",
			"pbrMetallicRoughness":{
				"baseColorFactor":[
					0,
					0.8000229597091675,
					0.02201542630791664,
					1
				],
				"metallicFactor":0,
				"roughnessFactor":0.5
			}
		}
	],
	"meshes":[
		{
			"name":"Cube.001",
			"primitives":[
				{
					"attributes":{
						"POSITION":0,
						"NORMAL":1,
						"TEXCOORD_0":2,
						"JOINTS_0":3,
						"WEIGHTS_0":4
					},
					"indices":5,
					"material":0
				},
				{
					"attributes":{
						"POSITION":6,
						"NORMAL":7,
						"TEXCOORD_0":8,
						"JOINTS_0":9,
						"WEIGHTS_0":10
					},
					"indices":11,
					"material":1
				},
				{
					"attributes":{
						"POSITION":12,
						"NORMAL":13,
						"TEXCOORD_0":14,
						"JOINTS_0":15,
						"WEIGHTS_0":16
					},
					"indices":17,
					"material":2
				}
			]
		}
	],
	"skins":[
		{
			"inverseBindMatrices":18,
			"joints":[
				1,
				0
			],
			"name":"Armature"
		}
	],
	"accessors":[
		{
			"bufferView":0,
			"componentType":5126,
			"count":16,
			"max":[
				1,
				1,
				4.263105392456055
			],
			"min":[
				-1,
				-1,
				-4.262264251708984
			],
			"type":"VEC3"
		},
		{
			"bufferView":1,
			"componentType":5126,
			"count":16,
			"type":"VEC3"
		},
		{
			"bufferView":2,
			"componentType":5126,
			"count":16,
			"type":"VEC2"
		},
		{
			"bufferView":3,
			"componentType":5121,
			"count":16,
			"type":"VEC4"
		},
		{
			"bufferView":4,
			"componentType":5126,
			"count":16,
			"type":"VEC4"
		},
		{
			"bufferView":5,
			"componentType":5123,
			"count":24,
			"type":"SCALAR"
		},
		{
			"bufferView":6,
			"componentType":5126,
			"count":16,
			"max":[
				1,
				1,
				4.263105392456055
			],
			"min":[
				-1,
				-1,
				-4.262264251708984
			],
			"type":"VEC3"
		},
		{
			"bufferView":7,
			"componentType":5126,
			"count":16,
			"type":"VEC3"
		},
		{
			"bufferView":8,
			"componentType":5126,
			"count":16,
			"type":"VEC2"
		},
		{
			"bufferView":9,
			"componentType":5121,
			"count":16,
			"type":"VEC4"
		},
		{
			"bufferView":10,
			"componentType":5126,
			"count":16,
			"type":"VEC4"
		},
		{
			"bufferView":11,
			"componentType":5123,
			"count":24,
			"type":"SCALAR"
		},
		{
			"bufferView":12,
			"componentType":5126,
			"count":16,
			"max":[
				1,
				1,
				4.263105392456055
			],
			"min":[
				-1,
				-1,
				-4.262264251708984
			],
			"type":"VEC3"
		},
		{
			"bufferView":13,
			"componentType":5126,
			"count":16,
			"type":"VEC3"
		},
		{
			"bufferView":14,
			"componentType":5126,
			"count":16,
			"type":"VEC2"
		},
		{
			"bufferView":15,
			"componentType":5121,
			"count":16,
			"type":"VEC4"
		},
		{
			"bufferView":16,
			"componentType":5126,
			"count":16,
			"type":"VEC4"
		},
		{
			"bufferView":17,
			"componentType":5123,
			"count":24,
			"type":"SCALAR"
		},
		{
			"bufferView":18,
			"componentType":5126,
			"count":2,
			"type":"MAT4"
		}
	],
	"bufferViews":[
		{
			"buffer":0,
			"byteLength":192,
			"byteOffset":0,
			"target":34962
		},
		{
			"buffer":0,
			"byteLength":192,
			"byteOffset":192,
			"target":34962
		},
		{
			"buffer":0,
			"byteLength":128,
			"byteOffset":384,
			"target":34962
		},
		{
			"buffer":0,
			"byteLength":64,
			"byteOffset":512,
			"target":34962
		},
		{
			"buffer":0,
			"byteLength":256,
			"byteOffset":576,
			"target":34962
		},
		{
			"buffer":0,
			"byteLength":48,
			"byteOffset":832,
			"target":34963
		},
		{
			"buffer":0,
			"byteLength":192,
			"byteOffset":880,
			"target":34962
		},
		{
			"buffer":0,
			"byteLength":192,
			"byteOffset":1072,
			"target":34962
		},
		{
			"buffer":0,
			"byteLength":128,
			"byteOffset":1264,
			"target":34962
		},
		{
			"buffer":0,
			"byteLength":64,
			"byteOffset":1392,
			"target":34962
		},
		{
			"buffer":0,
			"byteLength":256,
			"byteOffset":1456,
			"target":34962
		},
		{
			"buffer":0,
			"byteLength":48,
			"byteOffset":1712,
			"target":34963
		},
		{
			"buffer":0,
			"byteLength":192,
			"byteOffset":1760,
			"target":34962
		},
		{
			"buffer":0,
			"byteLength":192,
			"byteOffset":1952,
			"target":34962
		},
		{
			"buffer":0,
			"byteLength":128,
			"byteOffset":2144,
			"target":34962
		},
		{
			"buffer":0,
			"byteLength":64,
			"byteOffset":2272,
			"target":34962
		},
		{
			"buffer":0,
			"byteLength":256,
			"byteOffset":2336,
			"target":34962
		},
		{
			"buffer":0,
			"byteLength":48,
			"byteOffset":2592,
			"target":34963
		},
		{
			"buffer":0,
			"byteLength":128,
			"byteOffset":2640
		}
	],
	"buffers":[
		{
			"byteLength":2768,
			"uri":"Calibration2.bin"
		}
	]
}
