{
	"asset":{
		"version":"2.0"
	},
	"scene":0,
	"scenes":[
		{
			"name":"Scene",
			"nodes":[
				0
			]
		}
	],
	"nodes":[
		{
			"name":"Body",
			"mesh":0,
			"skin":0,
			"children":[
				2,
				3
			]
		},
		{
			"name":"Head",
			"translation":[
				0,
				1.2600977420806885,
				0
			]
		},
		{
			"children":[
				1,
				5,
				7
			],
			"name":"Chest",
			"translation":[
				0,
				0.7309165596961975,
				0
			]
		},
		{
			"children":[
				9,
				11
			],
			"name":"Pelvis",
			"translation":[
				0,
				-0.6694269180297852,
				0
			]
		},
		{
			"name":"Arm_Lower_L",
			"rotation":[
				0.0007359107839874923,
				-1.1920926112907182e-07,
				-8.77273878541196e-11,
				0.9999997615814209
			],
			"translation":[
				-2.211380327903681e-23,
				1.0775851011276245,
				-4.1211023926734924e-08
			]
		},
		{
			"children":[
				4
			],
			"name":"Arm_Upper_L",
			"rotation":[
				-0.7072615027427673,
				5.154531526166267e-19,
				5.154530492190502e-19,
				0.7069520950317383
			],
			"scale":[
				1,
				0.9999999403953552,
				0.9999999403953552
			],
			"translation":[
				2.404513190831369e-16,
				1.307249903678894,
				-0.5960225462913513
			]
		},
		{
			"name":"Arm_Lower_R",
			"rotation":[
				-1.1989315096272435e-10,
				2.384184796255795e-07,
				0.0007358990260399878,
				0.9999997615814209
			],
			"translation":[
				-5.8033037930727005e-08,
				1.077585220336914,
				7.444480246826795e-15
			]
		},
		{
			"children":[
				6
			],
			"name":"Arm_Upper_R",
			"rotation":[
				0.49989059567451477,
				0.5001093745231628,
				0.49989059567451477,
				0.5001094341278076
			],
			"scale":[
				0.9999999403953552,
				0.9999998807907104,
				0.9999999403953552
			],
			"translation":[
				2.419086127991083e-16,
				1.313813328742981,
				0.6064786911010742
			]
		},
		{
			"name":"Leg_Lower_L",
			"rotation":[
				-1.7236692724986648e-15,
				-5.212405176364509e-16,
				2.2830690227237938e-08,
				1
			],
			"translation":[
				-7.657213529910223e-09,
				1.3053622245788574,
				6.61813682046301e-16
			]
		},
		{
			"children":[
				8
			],
			"name":"Leg_Upper_L",
			"rotation":[
				-0.7071068286895752,
				-1.6143735237506007e-08,
				0.7071067094802856,
				1.2560738395711113e-15
			],
			"translation":[
				-4.108721246092156e-16,
				-0.8504034876823425,
				-0.32359275221824646
			]
		},
		{
			"name":"Leg_Lower_R",
			"rotation":[
				-1.7236692724986648e-15,
				-5.212405176364509e-16,
				2.2830690227237938e-08,
				1
			],
			"translation":[
				-7.657213529910223e-09,
				1.3053622245788574,
				-1.1145431044143903e-15
			]
		},
		{
			"children":[
				10
			],
			"name":"Leg_Upper_R",
			"rotation":[
				-0.7071068286895752,
				-1.6143735237506007e-08,
				0.7071067094802856,
				1.2560738395711113e-15
			],
			"translation":[
				-4.108721246092156e-16,
				-0.8504034876823425,
				0.3491361737251282
			]
		}
	],
	"meshes":[
		{
			"name":"BodyMesh",
			"primitives":[
				{
					"attributes":{
						"POSITION":0,
						"NORMAL":1,
						"TEXCOORD_0": 2,
						"JOINTS_0":3,
						"WEIGHTS_0":4
					},
					"indices":5
				}
			]
		}
	],
	"skins":[
		{
			"inverseBindMatrices":6,
			"joints":[
				2, 1, 5, 4, 7, 6, 3, 9, 8, 11, 10
			],
			"name":"Skeleton"
		}
	],
	"accessors":[
		{
			"bufferView":0,
			"componentType":5126,
			"count":7052,
			"max":[
				0.6993770003318787,
				2.9947762489318848,
				3.2641303539276123
			],
			"min":[
				-0.3387857675552368,
				-2.92952299118042,
				-3.2641305923461914
			],
			"type":"VEC3"
		},
		{
			"bufferView":1,
			"componentType":5126,
			"count":7052,
			"type":"VEC3"
		},
		{
			"bufferView":2,
			"componentType":5126,
			"count":7052,
			"type":"VEC2"
		},
		{
			"bufferView":3,
			"componentType":5121,
			"count":7052,
			"type":"VEC4"
		},
		{
			"bufferView":4,
			"componentType":5126,
			"count":7052,
			"type":"VEC4"
		},
		{
			"bufferView":5,
			"componentType":5123,
			"count":11784,
			"type":"SCALAR"
		},
		{
			"bufferView":6,
			"componentType":5126,
			"count":11,
			"type":"MAT4"
		}
	],
	"bufferViews":[
		{
			"buffer":0,
			"byteLength":84624,
			"byteOffset":0,
			"target":34962
		},
		{
			"buffer":0,
			"byteLength":84624,
			"byteOffset":84624,
			"target":34962
		},
		{
			"buffer":0,
			"byteLength":56416,
			"byteOffset":169248,
			"target":34962
		},
		{
			"buffer":0,
			"byteLength":28208,
			"byteOffset":225664,
			"target":34962
		},
		{
			"buffer":0,
			"byteLength":112832,
			"byteOffset":253872,
			"target":34962
		},
		{
			"buffer":0,
			"byteLength":23568,
			"byteOffset":366704,
			"target":34963
		},
		{
			"buffer":0,
			"byteLength":704,
			"byteOffset":390272
		}
	],
	"buffers":[
		{
			"byteLength":390976,
			"uri":"HumanBody.bin"
		}
	]
}
