{
  "accessors": [
    {
      "bufferView": 0,
      "count": 7052,
      "componentType": 5126,
      "type": "VEC3",
      "min": [
        -0.3387857675552368,
        -2.92952299118042,
        -3.2641305923461914
      ],
      "max": [
        0.6993770003318787,
        2.9947762489318848,
        3.2641303539276123
      ]
    },
    {
      "bufferView": 1,
      "count": 7052,
      "componentType": 5126,
      "type": "VEC3"
    },
    {
      "bufferView": 2,
      "count": 7052,
      "componentType": 5126,
      "type": "VEC2"
    },
    {
      "bufferView": 3,
      "count": 7052,
      "componentType": 5121,
      "type": "VEC4"
    },
    {
      "bufferView": 4,
      "count": 7052,
      "componentType": 5126,
      "type": "VEC4"
    },
    {
      "bufferView": 5,
      "count": 11784,
      "componentType": 5123,
      "type": "SCALAR"
    },
    {
      "bufferView": 6,
      "count": 11,
      "componentType": 5126,
      "type": "MAT4"
    },
    {
      "bufferView": 7,
      "count": 397,
      "componentType": 5126,
      "type": "SCALAR",
      "min": [
        0.0
      ],
      "max": [
        19.968000411987305
      ]
    },
    {
      "bufferView": 8,
      "byteOffset": 0,
      "count": 397,
      "componentType": 5126,
      "type": "VEC4"
    },
    {
      "bufferView": 8,
      "byteOffset": 6352,
      "count": 397,
      "componentType": 5126,
      "type": "VEC4"
    },
    {
      "bufferView": 8,
      "byteOffset": 12704,
      "count": 397,
      "componentType": 5126,
      "type": "VEC4"
    },
    {
      "bufferView": 8,
      "byteOffset": 19056,
      "count": 397,
      "componentType": 5126,
      "type": "VEC4"
    }
  ],
  "animations": [
    {
      "channels": [
        {
          "sampler": 0,
          "target": {
            "node": 4,
            "path": "rotation"
          }
        },
        {
          "sampler": 1,
          "target": {
            "node": 6,
            "path": "rotation"
          }
        },
        {
          "sampler": 2,
          "target": {
            "node": 5,
            "path": "rotation"
          }
        },
        {
          "sampler": 3,
          "target": {
            "node": 7,
            "path": "rotation"
          }
        }
      ],
      "samplers": [
        {
          "input": 7,
          "interpolation": "LINEAR",
          "output": 8
        },
        {
          "input": 7,
          "interpolation": "LINEAR",
          "output": 9
        },
        {
          "input": 7,
          "interpolation": "LINEAR",
          "output": 10
        },
        {
          "input": 7,
          "interpolation": "LINEAR",
          "output": 11
        }
      ]
    }
  ],
  "asset": {
    "version": "2.0"
  },
  "buffers": [
    {
      "byteLength": 390976,
      "uri": "HumanBody.bin"
    },
    {
      "byteLength": 26996,
      "uri": "HumanAnim.bin"
    }
  ],
  "bufferViews": [
    {
      "buffer": 0,
      "byteLength": 84624,
      "byteOffset": 0,
      "target": 34962
    },
    {
      "buffer": 0,
      "byteLength": 84624,
      "byteOffset": 84624,
      "target": 34962
    },
    {
      "buffer": 0,
      "byteLength": 56416,
      "byteOffset": 169248,
      "target": 34962
    },
    {
      "buffer": 0,
      "byteLength": 28208,
      "byteOffset": 225664,
      "target": 34962
    },
    {
      "buffer": 0,
      "byteLength": 112832,
      "byteOffset": 253872,
      "target": 34962
    },
    {
      "buffer": 0,
      "byteLength": 23568,
      "byteOffset": 366704,
      "target": 34963
    },
    {
      "buffer": 0,
      "byteLength": 704,
      "byteOffset": 390272
    },
    {
      "buffer": 1,
      "byteLength": 1588,
      "name": "timestamps"
    },
    {
      "buffer": 1,
      "byteLength": 25408,
      "byteOffset": 1588,
      "name": "rotations"
    }
  ],
  "scene": 0,
  "meshes": [
    {
      "name": "BodyMesh",
      "primitives": [
        {
          "attributes": {
            "POSITION": 0,
            "NORMAL": 1,
            "TEXCOORD_0": 2,
            "JOINTS_0": 3,
            "WEIGHTS_0": 4
          },
          "indices": 5
        }
      ]
    }
  ],
  "nodes": [
    {
      "children": [
        2,
        3
      ],
      "mesh": 0,
      "name": "Body",
      "skin": 0
    },
    {
      "name": "Head",
      "translation": [
        0.0,
        1.2600977,
        0.0
      ]
    },
    {
      "children": [
        1,
        5,
        7
      ],
      "name": "Chest",
      "translation": [
        0.0,
        0.73091656,
        0.0
      ]
    },
    {
      "children": [
        9,
        11
      ],
      "name": "Pelvis",
      "translation": [
        0.0,
        -0.6694269,
        0.0
      ]
    },
    {
      "name": "Arm_Lower_L",
      "rotation": [
        0.0007359108,
        -1.1920926e-7,
        -8.772739e-11,
        0.99999976
      ],
      "translation": [
        -2.2113803e-23,
        1.0775851,
        -4.1211024e-8
      ]
    },
    {
      "children": [
        4
      ],
      "name": "Arm_Upper_L",
      "rotation": [
        -0.7072615,
        5.1545315e-19,
        5.1545305e-19,
        0.7069521
      ],
      "scale": [
        1.0,
        0.99999994,
        0.99999994
      ],
      "translation": [
        2.4045132e-16,
        1.3072499,
        -0.59602255
      ]
    },
    {
      "name": "Arm_Lower_R",
      "rotation": [
        -1.1989315e-10,
        2.3841848e-7,
        0.000735899,
        0.99999976
      ],
      "translation": [
        -5.8033038e-8,
        1.0775852,
        7.44448e-15
      ]
    },
    {
      "children": [
        6
      ],
      "name": "Arm_Upper_R",
      "rotation": [
        0.4998906,
        0.5001094,
        0.4998906,
        0.50010943
      ],
      "scale": [
        0.99999994,
        0.9999999,
        0.99999994
      ],
      "translation": [
        2.419086e-16,
        1.3138133,
        0.6064787
      ]
    },
    {
      "name": "Leg_Lower_L",
      "rotation": [
        -1.7236693e-15,
        -5.212405e-16,
        2.283069e-8,
        1.0
      ],
      "translation": [
        -7.6572135e-9,
        1.3053622,
        6.618137e-16
      ]
    },
    {
      "children": [
        8
      ],
      "name": "Leg_Upper_L",
      "rotation": [
        -0.7071068,
        -1.6143735e-8,
        0.7071067,
        1.2560738e-15
      ],
      "translation": [
        -4.1087212e-16,
        -0.8504035,
        -0.32359275
      ]
    },
    {
      "name": "Leg_Lower_R",
      "rotation": [
        -1.7236693e-15,
        -5.212405e-16,
        2.283069e-8,
        1.0
      ],
      "translation": [
        -7.6572135e-9,
        1.3053622,
        -1.1145431e-15
      ]
    },
    {
      "children": [
        10
      ],
      "name": "Leg_Upper_R",
      "rotation": [
        -0.7071068,
        -1.6143735e-8,
        0.7071067,
        1.2560738e-15
      ],
      "translation": [
        -4.1087212e-16,
        -0.8504035,
        0.34913617
      ]
    }
  ],
  "scenes": [
    {
      "name": "Scene",
      "nodes": [
        0
      ]
    }
  ],
  "skins": [
    {
      "inverseBindMatrices": 6,
      "joints": [
        2,
        1,
        5,
        4,
        7,
        6,
        3,
        9,
        8,
        11,
        10
      ],
      "name": "Skeleton"
    }
  ]
}